<?xml version="1.0" encoding="UTF-8"?>
<svg id="logos" xmlns="http://www.w3.org/2000/svg" viewBox="0 0 716.62 88.57">
  <defs>
    <style>
      .cls-1 {
        fill: #fff;
      }

      .cls-2 {
        fill: #ffd600;
      }
    </style>
  </defs>
  <g>
    <path class="cls-2" d="M8.54,68.3l-1.39-1.65-5.9,16.3-.73,2.18,2.05,3.43h21.79l-2.91-3.43,4.01-6.93c-8.45-2.44-13.57-6-16.92-9.9Z"/>
    <path class="cls-2" d="M166.35,32.89c-1.32,6.41-3.76,12.55-7.73,17.24-4.29,4.89-7.13,4.36-8.26,3.76,2.31-3.1,2.18-6.67,1.39-11.56-6.67,14.46-15.76,7.44-16.44-2.13-.75-10.52,6.59-14.13,6.79-14.25-25.89,8.19-31.64-42.2-70.27-20.47-5.61,3.17-17.77,12.88-30.97,16.78-20.54,6.01-29.98,16.64-32.76,29.46C2.3,49.34-.21,44.98.51,38.71c-3.14,10.56,8.42,32.92,26.88,36.79l5.71,13.08h21.93l-2.8-3.43,3.63-14.2c-1.45-10.24-6.27-18.23-15.52-22.72,18.29-.59,22.59,27.8,45.17,21.53-3.3,2.64-7.2,2.71-11.62,2.71,0,0-3.68,7.19-4.62,9.1-2.31,4.7.79,7.01.79,7.01h19.81l-2.05-3.37.07-.07,24.17-36.72c-4.09,15.72-2.25,19.15,13.54,28.86,2.51,1.52,7,2.18,11.69,0l7-7.26-3.04-4.62,4.76.2c15.59-4.49,21.66-17.24,20.34-32.69Z"/>
    <polygon class="cls-2" points="92.12 85.14 94.23 88.57 99.18 88.57 103.01 88.57 100.04 85.2 105.59 62.88 92.12 85.14"/>
  </g>
  <path id="one-line-logo-white" class="cls-1" d="M211.23,38.36h-7.34l-4.73,18.7h7.34c4.73,0,8.05-2.21,9.39-7.34l1.1-4.18c1.03-4.02-.39-7.18-5.76-7.18ZM206.57,70.16h-11.05l-4.81,18.23h-15.39l16.65-63.13h25.96c12.31,0,18.15,6.08,15.23,17.28l-3.08,11.68c-3,11.36-12.39,15.94-23.51,15.94h0ZM230.48,88.39l16.73-63.13h24.62c11.68,0,19.02,7.65,15.78,19.81l-1.97,7.26c-1.66,6.23-5.37,10.81-11.84,12.78l7.02,23.28h-15.62l-6.15-21.23h-7.58l-5.6,21.23h-15.39ZM254.62,55.56h7.5c4.66,0,7.65-1.66,8.68-5.44l1.34-4.97c1.18-4.26-1.74-6.86-5.76-6.86h-7.34l-4.42,17.28h0ZM304.89,25.26h15.39l-16.65,63.13h-15.47l16.73-63.13ZM332.82,25.26h15.31l7.02,32.75,23.2-32.75h16.96l-16.73,63.13h-15.39l10.1-38.35-18.15,25.96h-8.6l-5.29-26.51-10.1,38.9h-14.99l16.65-63.13h0ZM438.79,75.21l-3.63,13.18h-44.03l16.73-63.13h42.77l-3.63,13.18h-27.22l-3.16,11.91h22.72l-3.63,13.18h-22.57l-3.08,11.68h28.72ZM477.38,25.26l-6.86,26.28h5.37l17.2-26.28h17.12l-22.41,32.27,8.92,30.85h-15.78l-7.02-24.22h-6.94l-6.39,24.22h-15.15l16.65-63.13h15.31ZM595.18,88.39l.39-13.57h-17.44l-5.29,13.57h-16.65l26.91-63.13h27.7l-.32,63.13h-15.31ZM582.64,63.14h13.26l.63-25.09h-4.26l-9.63,25.09ZM660.99,54.62l-3.55,13.26h-20.36l-5.44,20.52h-15.47l16.81-63.13h36.38l-3.71,13.49h-20.83l-4.18,15.86h20.36ZM716.62,25.26l-3.63,13.49h-14.6l-13.1,49.63h-15.39l13.02-49.63h-13.73l3.71-13.49h43.71ZM502.31,88.39l16.73-63.13h24.62c11.68,0,19.02,7.65,15.78,19.81l-1.97,7.26c-1.66,6.23-5.37,10.81-11.84,12.78l7.02,23.28h-15.62l-6.15-21.23h-7.57l-5.6,21.23h-15.39ZM526.46,55.56h7.5c4.66,0,7.65-1.66,8.68-5.44l1.34-4.97c1.18-4.26-1.74-6.86-5.76-6.86h-7.34l-4.42,17.28h0Z"/>
</svg>